# AST/ASF file generated using VICON BodyLanguage
# -----------------------------------------------
:version 1.10
:name VICON
:units
  mass 1.0
  length 0.45
  angle deg
:documentation
   .ast/.asf automatically generated from VICON data using
   VICON BodyBuilder and BodyLanguage model FoxedUp or BRILLIANT.MOD
:root
   order TX TY TZ RX RY RZ
   axis XYZ
   position 0 0 0  
   orientation 0 0 0 
:bonedata
  begin
     id 1 
     name lhipjoint
     direction 0.645893 -0.654526 0.392961 
     length 2.38111 
     axis 0 0 0  XYZ
  end
  begin
     id 2 
     name lfemur
     direction 0.34202 -0.939693 0  
     length 6.6822  
     axis 0 0 20  XYZ
    dof rx ry rz
    limits (-160.0 20.0)
           (-70.0 70.0)
           (-60.0 70.0)
  end
  begin
     id 3 
     name ltibia
     direction 0.34202 -0.939693 0   
     length 6.93904   
     axis 0 0 20   XYZ
    dof rx
    limits (-10.0 170.0)
  end
  begin
     id 4 
     name lfoot
     direction 0.0694967 -0.190941 0.979138   
     length 2.13616   
     axis -90 7.62852e-016 20   XYZ
    dof rx rz
    limits (-45.0 90.0)
           (-70.0 20.0)
  end
  begin
     id 5 
     name ltoes
     direction 1.535e-011 -4.2202e-011 1   
     length 1.07536   
     axis -90 7.62852e-016 20   XYZ
    dof rx
    limits (-90.0 20.0)
  end
  begin
     id 6 
     name rhipjoint
     direction -0.700219 -0.612087 0.367481   
     length 2.54621  
     axis 0 0 0  XYZ 
  end
  begin
     id 7 
     name rfemur
     direction -0.34202 -0.939693 0   
     length 6.55353   
     axis 0 0 -20   XYZ
    dof rx ry rz
    limits (-160.0 20.0)
           (-70.0 70.0)
           (-70.0 60.0)
  end
  begin
     id 8 
     name rtibia
     direction -0.34202 -0.939693 0   
     length 6.8736   
     axis 0 0 -20   XYZ
    dof rx
    limits (-10.0 170.0)
 end
 begin
     id 9 
     name rfoot
     direction -0.0679995 -0.186827 0.980037   
     length 2.1218  
     axis -90 -7.62852e-016 -20   XYZ
    dof rx rz
    limits (-45.0 90.0)
           (-20.0 70.0)
  end
  begin
     id 10 
     name rtoes
     direction -1.53589e-011 -4.21772e-011 1   
     length 1.06864   
     axis -90 -7.62852e-016 -20   XYZ
    dof rx
    limits (-90.0 20.0)
  end
  begin
     id 11 
     name lowerback
     direction -0.0416607 0.996347 -0.0745409   
     length 2.12205   
     axis 0 0 0   XYZ
    dof rx ry rz
    limits (-20.0 45.0)
           (-30.0 30.0)
           (-30.0 30.0)
  end
  begin
     id 12 
     name upperback
     direction -0.000153993 0.999276 -0.0380568   
     length 2.12759   
     axis 0 0 0   XYZ
    dof rx ry rz
    limits (-20.0 45.0)
           (-30.0 30.0)
           (-30.0 30.0)
  end
  begin
     id 13 
     name thorax
     direction 0.0187671 0.999821 -0.00241421   
     length 2.13704   
     axis 0 0 0   XYZ
    dof rx ry rz
    limits (-20.0 45.0)
           (-30.0 30.0)
           (-30.0 30.0)
  end
  begin
     id 14 
     name lowerneck
     direction 0.0268157 0.964865 0.261374   
     length 1.65253   
     axis 0 0 0   XYZ
    dof rx ry rz
    limits (-20.0 45.0)
           (-30.0 30.0)
           (-30.0 30.0)
  end
  begin
     id 15 
     name upperneck
     direction 0.00263774 0.939908 -0.341418   
     length 1.72375   
     axis 0 0 0   XYZ
    dof rx ry rz
    limits (-20.0 45.0)
           (-30.0 30.0)
           (-30.0 30.0)
  end
  begin
     id 16
     name head
     direction -0.00526001 0.989001 -0.147818  
     length 1.74878  
     axis 0 0 0   XYZ
    dof rx ry rz
    limits (-20.0 45.0)
           (-30.0 30.0)
           (-30.0 30.0)
  end
  begin
     id 17 
     name lclavicle
     direction 0.881214 0.461162 -0.103884  
     length 3.25108  
     axis 0 0 0   XYZ
    dof ry rz
    limits (-20.0 10.0)
           (0.0 20.0)
  end
  begin
     id 18 
     name lhumerus
     direction 1 -4.4899e-011 3.38092e-027   
     length 4.87408   
     axis 180 -30 -90   XYZ
    dof rx ry rz
    limits (-60.0 90.0)
           (-90.0 90.0)
           (-90.0 90.0)
  end
  begin
     id 19
     name lradius
     direction 1 -4.48931e-011 9.96288e-027   
     length 2.76729   
     axis 180 -30 -90   XYZ
    dof rx
    limits (-10.0 170.0)
  end
  begin
     id 20
     name lwrist
     direction 1 -4.4896e-011 1.50617e-026   
     length 1.38364   
     axis -9.31234e-015 90 90   XYZ
    dof ry
    limits (-180.0 0.0)
 end
  begin
     id 21 
     name lhand
     direction 1 -4.49038e-011 3.01286e-026   
     length 0.98922   
     axis -1.92217e-014 90 90   XYZ
    dof rx rz
    limits (-90.0 90.0)
           (-45.0 45.0)
  end
  begin
     id 22 
     name lfingers
     direction 1 -4.49051e-011 6.02588e-026   
     length 0.797535   
     axis -3.84436e-014 90 90   XYZ
    dof rx
    limits (0.0 90.0)
  end
  begin
     id 23
     name lthumb
     direction 0.707107 -6.34901e-011 0.707107   
     length 1.14511   
     axis -90 45 2.19363e-014   XYZ
    dof rx rz
    limits (-45.0 45.0)
           (-45.0 45.0)
  end
  begin
     id 24 
     name rclavicle
     direction -0.893894 0.441652 -0.0767889   
     length 3.29361  
     axis 0 0 0   XYZ 
    dof ry rz
    limits (-10.0 20.0)
           (-20.0 0.0)
  end
  begin
     id 25 
     name rhumerus
     direction -1 -4.48945e-011 8.0491e-028  
     length 4.71404   
     axis 180 30 90   XYZ
    dof rx ry rz
    limits (-90.0 60.0)
           (-90.0 90.0)
           (-90.0 90.0)
  end
  begin
     id 26 
     name rradius
     direction -1 -4.48986e-011 9.27795e-027   
     length 2.83468   
     axis 180 30 90   XYZ
    dof rx
    limits (-10.0 170.0)
  end
  begin
     id 27 
     name rwrist
     direction -1 -4.49029e-011 1.5064e-026   
     length 1.41734   
     axis -9.31234e-015 -90 -90   XYZ
    dof ry
    limits (-180.0 0.0)
  end
  begin
     id 28
     name rhand
     direction -1 -4.48857e-011 3.01165e-026   
     length 0.868195   
     axis -1.92217e-014 -90 -90   XYZ
    dof rx rz
    limits (-90.0 90.0)
           (-45.0 45.0)
  end
  begin
     id 29
     name rfingers
     direction -1 -4.49048e-011 6.02585e-026   
     length 0.699961   
     axis -3.84436e-014 -90 -90   XYZ
    dof rx
    limits (0.0 90.0)
  end
  begin
     id 30
     name rthumb
     direction -0.707107 -6.34854e-011 0.707107   
     length 1.00501   
     axis -90 -45 -2.19363e-014   XYZ
    dof rx rz
    limits (-45.0 45.0)
           (-45.0 45.0)
  end
:hierarchy
  begin
    root lhipjoint rhipjoint lowerback
    lhipjoint lfemur
    lfemur ltibia
    ltibia lfoot
    lfoot ltoes
    rhipjoint rfemur
    rfemur rtibia
    rtibia rfoot
    rfoot rtoes
    lowerback upperback
    upperback thorax
    thorax lowerneck lclavicle rclavicle
    lowerneck upperneck
    upperneck head
    lclavicle lhumerus
    lhumerus lradius
    lradius lwrist
    lwrist lhand lthumb
    lhand lfingers
    rclavicle rhumerus
    rhumerus rradius
    rradius rwrist
    rwrist rhand rthumb
    rhand rfingers
  end

#!OML:ASF H:\ManfredObstacles\Project 1\Capture day 2\Session 1\male.ASF
:FULLY-SPECIFIED
:DEGREES
63
root 1.88692 14.5059 23.6922 -179.472 -12.3484 -181.142
lowerback 8.71363 -1.19882 -4.47471
upperback 7.53238 -2.64928 -0.594367
thorax 3.11434 -1.83919 2.02081
lowerneck -30.9968 2.26545 0.871875
upperneck 43.2428 -1.11226 0.173389
head 24.9235 -1.27541 -0.903007
rclavicle -7.35503e-015 1.35174e-014
rhumerus -39.383 -13.3413 -73.2699
rradius 28.7742
rwrist 34.0126
rhand -8.63151 -4.13262
rfingers 7.12502
rthumb 17.3011 -33.3825
lclavicle -7.35503e-015 1.35174e-014
lhumerus -24.1769 -18.9963 86.5814
lradius 53.9257
lwrist -30.0895
lhand -9.40725 6.14041
lfingers 7.12502
lthumb 16.5544 35.4543
rfemur -42.2913 0.761424 18.5021
rtibia 48.3216
rfoot 1.5215 -14.333
rtoes -14.6894
lfemur -8.13236 -0.275007 -17.341
ltibia 70.1007
lfoot 12.1062 10.3845
ltoes -4.47891
64
root 1.92096 14.4409 23.582 -179.494 -12.5549 -180.806
lowerback 9.1659 -1.12026 -4.12048
upperback 7.74301 -2.58771 -0.513289
thorax 3.06964 -1.81683 1.91553
lowerneck -31.1263 2.14085 0.813084
upperneck 42.9846 -1.14985 0.194
head 24.7132 -1.26098 -0.867626
rclavicle 1.19271e-015 -2.38542e-015
rhumerus -38.4737 -13.2055 -73.8077
rradius 28.4452
rwrist 34.7215
rhand -8.44002 -4.27726
rfingers 7.12502
rthumb 17.4854 -33.5109
lclavicle 1.19271e-015 -2.38542e-015
lhumerus -23.5309 -18.4317 86.296
lradius 52.6902
lwrist -30.2572
lhand -9.4876 6.26989
lfingers 7.12502
lthumb 16.477 35.5902
rfemur -42.5291 0.502424 19.1755
rtibia 49.5064
rfoot 0.254351 -14.7724
rtoes -14.5043
lfemur -9.83238 -0.159322 -16.7056
ltibia 73.0798
lfoot 12.7428 9.67489
ltoes -3.68627
65
root 1.95625 14.3798 23.4778 -179.443 -12.7913 -180.52
lowerback 9.59002 -1.02744 -3.83429
upperback 7.92139 -2.5032 -0.435912
thorax 3.00982 -1.78274 1.8422
lowerneck -31.1973 2.00988 0.778749
upperneck 42.7257 -1.22376 0.219096
head 24.4832 -1.25623 -0.845828
rclavicle -4.29375e-014 1.19271e-015
rhumerus -37.615 -12.9506 -74.3944
rradius 28.2366
rwrist 35.2801
rhand -8.25971 -4.44062
rfingers 7.12502
rthumb 17.6589 -33.6587
lclavicle -4.29375e-014 1.19271e-015
lhumerus -22.8477 -17.9605 86.0393
lradius 51.3868
lwrist -30.3943
lhand -9.51966 6.43136
lfingers 7.12502
lthumb 16.4462 35.7542
rfemur -42.9167 0.222165 19.7861
rtibia 50.7468
rfoot -0.826026 -15.1875
rtoes -14.4229
lfemur -11.6641 -0.0727268 -16.1471
ltibia 75.9603
lfoot 13.2059 9.21936
ltoes -3.22099
66
root 1.99218 14.3219 23.3799 -179.34 -13.0246 -180.302
lowerback 10.0141 -0.915366 -3.63573
upperback 8.09609 -2.39811 -0.357321
thorax 2.95063 -1.74244 1.81684
lowerneck -31.3451 1.88495 0.791305
upperneck 42.4451 -1.27376 0.193351
head 24.2672 -1.2374 -0.85419
rclavicle -8.54774e-015 5.1684e-015
rhumerus -36.7328 -12.5382 -75.0363
rradius 28.1345
rwrist 35.6228
rhand -8.12219 -4.62086
rfingers 7.12502
rthumb 17.7913 -33.827
lclavicle -8.54774e-015 5.1684e-015
lhumerus -22.0554 -17.5201 85.8014
lradius 50.0037
lwrist -30.5213
lhand -9.48707 6.59195
lfingers 7.12502
lthumb 16.4775 35.9122
rfemur -43.4461 -0.0492025 20.3115
rtibia 52.0755
rfoot -1.78328 -15.5471
rtoes -14.4069
lfemur -13.5727 0.013365 -15.6955
ltibia 78.711
lfoot 13.4518 9.1244
ltoes -3.06163
67
root 2.02804 14.266 23.2885 -179.202 -13.2413 -180.15
lowerback 10.4583 -0.779141 -3.51223
upperback 8.26221 -2.26667 -0.283546
thorax 2.87416 -1.692 1.82653
lowerneck -31.4809 1.75089 0.782387
upperneck 42.1558 -1.33134 0.17888
head 24.0431 -1.2242 -0.854151
rclavicle -3.37934e-015 -1.27222e-014
rhumerus -35.8326 -11.9822 -75.7137
rradius 28.1111
rwrist 35.7566
rhand -8.04198 -4.80991
rfingers 7.12502
rthumb 17.8684 -34.009
lclavicle -3.37934e-015 -1.27222e-014
lhumerus -21.1851 -17.104 85.5883
lradius 48.5609
lwrist -30.6482
lhand -9.38579 6.76122
lfingers 7.12502
lthumb 16.575 36.0734
rfemur -44.0849 -0.289897 20.7492
rtibia 53.4802
rfoot -2.66411 -15.8458
rtoes -14.4283
lfemur -15.5295 0.113347 -15.356
ltibia 81.3172
lfoot 13.4494 9.42847
ltoes -3.04825
68
root 2.06288 14.2115 23.2035 -179.049 -13.439 -180.074
lowerback 10.9446 -0.62205 -3.46614
upperback 8.43718 -2.11902 -0.218295
thorax 2.78722 -1.63863 1.86925
lowerneck -31.6275 1.63212 0.824785
upperneck 41.8459 -1.36701 0.121388
head 23.8082 -1.1993 -0.880957
rclavicle -3.18055e-015 -4.77083e-015
rhumerus -34.8781 -11.2849 -76.4181
rradius 28.1493
rwrist 35.6482
rhand -8.01995 -5.01246
rfingers 7.12502
rthumb 17.8896 -34.2096
lclavicle -3.18055e-015 -4.77083e-015
lhumerus -20.231 -16.6613 85.3948
lradius 47.0825
lwrist -30.785
lhand -9.22224 6.91415
lfingers 7.12502
lthumb 16.7325 36.2131
rfemur -44.771 -0.514214 21.0884
rtibia 54.9131
rfoot -3.51356 -16.0786
rtoes -14.4665
lfemur -17.4905 0.212053 -15.1529
ltibia 83.761
lfoot 13.1918 10.1162
ltoes -3.10036
69
root 2.09585 14.158 23.1253 -178.896 -13.6056 -180.042
lowerback 11.4812 -0.456423 -3.45983
upperback 8.6182 -1.96987 -0.156358
thorax 2.6817 -1.58803 1.93059
lowerneck -31.7912 1.51507 0.817274
upperneck 41.5612 -1.39521 0.0897335
head 23.6086 -1.17996 -0.883814
rclavicle -1.82882e-014 -7.95139e-016
rhumerus -33.8639 -10.4809 -77.1129
rradius 28.2174
rwrist 35.4545
rhand -8.05991 -5.18175
rfingers 7.12502
rthumb 17.8512 -34.3824
lclavicle -1.82882e-014 -7.95139e-016
lhumerus -19.236 -16.126 85.2039
lradius 45.594
lwrist -31.0165
lhand -9.0269 6.99642
lfingers 7.12502
lthumb 16.9205 36.2793
rfemur -45.4565 -0.716638 21.3694
rtibia 56.3089
rfoot -4.31528 -16.2647
rtoes -14.5414
lfemur -19.4487 0.321167 -15.0499
ltibia 86.0402
lfoot 12.6945 11.0782
ltoes -3.26627
